HIERARCHY
ROOT Hips
{
	OFFSET 33.863875 79.607779 -0.217965
	CHANNELS 6 Xposition Yposition Zposition Zrotation Yrotation Xrotation 
	JOINT Chest
	{
		OFFSET -0.000014 7.851918 -0.000007
		CHANNELS 3 Zrotation Yrotation Xrotation
		JOINT Chest2
		{
			OFFSET 0.000012 22.389076 -0.000022
			CHANNELS 3 Zrotation Yrotation Xrotation
			JOINT Neck
			{
				OFFSET 0.000033 23.316023 -0.000010
				CHANNELS 3 Zrotation Yrotation Xrotation
				JOINT Head
				{
					OFFSET 0.000002 13.621833 1.826259
					CHANNELS 3 Zrotation Yrotation Xrotation
					End Site
					{
						OFFSET 0.000000 0.000000 0.000000
					}
				}
			}
			JOINT LeftCollar
			{
				OFFSET 3.648724 17.706114 -0.490934
				CHANNELS 3 Zrotation Yrotation Xrotation
				JOINT LeftShoulder
				{
					OFFSET 10.348048 0.000035 0.000007
					CHANNELS 3 Zrotation Yrotation Xrotation
					JOINT LeftElbow
					{
						OFFSET 26.736929 0.000012 0.000011
						CHANNELS 3 Zrotation Yrotation Xrotation
						JOINT LeftWrist
						{
							OFFSET 22.092764 0.000049 0.000007
							CHANNELS 3 Zrotation Yrotation Xrotation
							JOINT LeftFinger0
							{
								OFFSET 1.896455 -2.155119 3.017020
								CHANNELS 3 Zrotation Yrotation Xrotation
								JOINT LeftFinger01
								{
									OFFSET 2.864244 -0.000004 -0.000023
									CHANNELS 3 Zrotation Yrotation Xrotation
									JOINT LeftFinger02
									{
										OFFSET 2.448108 -0.000008 0.000015
										CHANNELS 3 Zrotation Yrotation Xrotation
										End Site
										{
											OFFSET 0.000000 0.000000 0.000000
										}
									}
								}
							}
							JOINT LeftFinger1
							{
								OFFSET 7.758459 0.000020 3.017056
								CHANNELS 3 Zrotation Yrotation Xrotation
								JOINT LeftFinger11
								{
									OFFSET 4.310181 -0.000025 0.000024
									CHANNELS 3 Zrotation Yrotation Xrotation
									JOINT LeftFinger12
									{
										OFFSET 2.155079 -0.000007 -0.000013
										CHANNELS 3 Zrotation Yrotation Xrotation
										End Site
										{
											OFFSET 0.000000 0.000000 0.000000
										}
									}
								}
							}
							JOINT LeftFinger2
							{
								OFFSET 7.758001 -0.000013 0.999950
								CHANNELS 3 Zrotation Yrotation Xrotation
								JOINT LeftFinger21
								{
									OFFSET 4.741099 -0.000010 -0.000026
									CHANNELS 3 Zrotation Yrotation Xrotation
									JOINT LeftFinger22
									{
										OFFSET 2.586244 -0.000014 0.000045
										CHANNELS 3 Zrotation Yrotation Xrotation
										End Site
										{
											OFFSET 0.000000 0.000000 0.000000
										}
									}
								}
							}
							JOINT LeftFinger3
							{
								OFFSET 7.327053 -0.000032 -0.999931
								CHANNELS 3 Zrotation Yrotation Xrotation
								JOINT LeftFinger31
								{
									OFFSET 4.310297 0.000014 0.000023
									CHANNELS 3 Zrotation Yrotation Xrotation
									JOINT LeftFinger32
									{
										OFFSET 2.155033 -0.000026 -0.000007
										CHANNELS 3 Zrotation Yrotation Xrotation
										End Site
										{
											OFFSET 0.000000 0.000000 0.000000
										}
									}
								}
							}
							JOINT LeftFinger4
							{
								OFFSET 6.895986 0.000015 -3.017105
								CHANNELS 3 Zrotation Yrotation Xrotation
								JOINT LeftFinger41
								{
									OFFSET 3.448330 0.000007 -0.000006
									CHANNELS 3 Zrotation Yrotation Xrotation
									JOINT LeftFinger42
									{
										OFFSET 1.724105 -0.000021 0.000009
										CHANNELS 3 Zrotation Yrotation Xrotation
										End Site
										{
											OFFSET 0.000000 0.000000 0.000000
										}
									}
								}
							}
						}
					}
				}
			}
			JOINT RightCollar
			{
				OFFSET -3.648844 17.705479 -0.490739
				CHANNELS 3 Zrotation Yrotation Xrotation
				JOINT RightShoulder
				{
					OFFSET -10.348236 -0.000022 0.000052
					CHANNELS 3 Zrotation Yrotation Xrotation
					JOINT RightElbow
					{
						OFFSET -26.738459 0.000011 -0.000016
						CHANNELS 3 Zrotation Yrotation Xrotation
						JOINT RightWrist
						{
							OFFSET -22.093737 0.000000 0.000049
							CHANNELS 3 Zrotation Yrotation Xrotation
							JOINT RightFinger0
							{
								OFFSET -1.896505 -2.155136 3.017196
								CHANNELS 3 Zrotation Yrotation Xrotation
								JOINT RightFinger01
								{
									OFFSET -2.864427 -0.000013 -0.000002
									CHANNELS 3 Zrotation Yrotation Xrotation
									JOINT RightFinger02
									{
										OFFSET -2.448345 0.000014 -0.000040
										CHANNELS 3 Zrotation Yrotation Xrotation
										End Site
										{
											OFFSET 0.000000 0.000000 0.000000
										}
									}
								}
							}
							JOINT RightFinger1
							{
								OFFSET -7.758431 -0.000007 3.017219
								CHANNELS 3 Zrotation Yrotation Xrotation
								JOINT RightFinger11
								{
									OFFSET -4.310093 0.000020 -0.000020
									CHANNELS 3 Zrotation Yrotation Xrotation
									JOINT RightFinger12
									{
										OFFSET -2.155087 0.000006 -0.000010
										CHANNELS 3 Zrotation Yrotation Xrotation
										End Site
										{
											OFFSET 0.000000 0.000000 0.000000
										}
									}
								}
							}
							JOINT RightFinger2
							{
								OFFSET -7.758370 0.000001 0.999953
								CHANNELS 3 Zrotation Yrotation Xrotation
								JOINT RightFinger21
								{
									OFFSET -4.741131 -0.000006 0.000014
									CHANNELS 3 Zrotation Yrotation Xrotation
									JOINT RightFinger22
									{
										OFFSET -2.585970 0.000006 0.000009
										CHANNELS 3 Zrotation Yrotation Xrotation
										End Site
										{
											OFFSET 0.000000 0.000000 0.000000
										}
									}
								}
							}
							JOINT RightFinger3
							{
								OFFSET -7.327120 0.000007 -0.999965
								CHANNELS 3 Zrotation Yrotation Xrotation
								JOINT RightFinger31
								{
									OFFSET -4.310278 -0.000035 0.000017
									CHANNELS 3 Zrotation Yrotation Xrotation
									JOINT RightFinger32
									{
										OFFSET -2.155075 0.000026 0.000009
										CHANNELS 3 Zrotation Yrotation Xrotation
										End Site
										{
											OFFSET 0.000000 0.000000 0.000000
										}
									}
								}
							}
							JOINT RightFinger4
							{
								OFFSET -6.896014 0.000031 -3.017050
								CHANNELS 3 Zrotation Yrotation Xrotation
								JOINT RightFinger41
								{
									OFFSET -3.448209 0.000012 0.000043
									CHANNELS 3 Zrotation Yrotation Xrotation
									JOINT RightFinger42
									{
										OFFSET -1.724081 0.000005 -0.000001
										CHANNELS 3 Zrotation Yrotation Xrotation
										End Site
										{
											OFFSET 0.000000 0.000000 0.000000
										}
									}
								}
							}
						}
					}
				}
			}
		}
	}
	JOINT LeftHip
	{
		OFFSET 9.131313 -0.000017 0.000032
		CHANNELS 3 Zrotation Yrotation Xrotation
		JOINT LeftKnee
		{
			OFFSET 0.000031 -36.872204 0.000001
			CHANNELS 3 Zrotation Yrotation Xrotation
			JOINT LeftAnkle
			{
				OFFSET -0.000004 -36.711002 0.000063
				CHANNELS 3 Zrotation Yrotation Xrotation
				JOINT LeftToe
				{
					OFFSET -0.000036 -5.935429 13.696634
					CHANNELS 3 Zrotation Yrotation Xrotation
					End Site
					{
						OFFSET 0.000000 0.000000 0.000000
					}
				}
			}
		}
	}
	JOINT RightHip
	{
		OFFSET -9.131631 -0.000013 -0.000016
		CHANNELS 3 Zrotation Yrotation Xrotation
		JOINT RightKnee
		{
			OFFSET -0.000015 -36.868404 -0.000001
			CHANNELS 3 Zrotation Yrotation Xrotation
			JOINT RightAnkle
			{
				OFFSET 0.000047 -36.711498 0.000005
				CHANNELS 3 Zrotation Yrotation Xrotation
				JOINT RightToe
				{
					OFFSET 0.000025 -5.935167 13.696882
					CHANNELS 3 Zrotation Yrotation Xrotation
					End Site
					{
						OFFSET 0.000000 0.000000 0.000000
					}
				}
			}
		}
	}
}
MOTION
Frames: 5
Frame Time: 0.050000
30.798500 79.637748 -0.646404 -0.418161 5.007627 -0.584239 0.001722 -0.187025 -12.230961 1.616601 -0.726671 14.739211 5.732534 -0.368205 24.290503 -4.754225 1.066817 -15.685838 4.754249 -8.837377 3.956234 -78.791550 -3.784101 20.322931 -0.000226 -18.318487 -34.484287 1.348623 10.539759 -5.215879 -26.917950 -41.591084 54.243343 -20.137194 18.922787 -3.410973 -21.444439 20.093687 41.190437 -26.247765 -7.495924 17.859280 -35.723911 -12.521203 6.671040 -25.778381 -10.294437 4.874740 -9.166674 -9.897441 -3.057214 -41.054581 -1.433884 1.772101 -29.716984 -1.661241 1.755903 -15.437275 -8.675917 -3.035697 -33.119389 -0.201315 -0.631406 -22.649796 0.151226 -0.735722 -5.362411 -5.619246 -22.630728 -25.803457 9.250119 -5.836221 -15.980040 7.071506 -4.724237 7.856251 1.771074 5.048500 56.949097 17.086693 2.109170 179.987045 72.860672 153.579453 -11.381024 -17.427326 2.557678 24.427015 43.784538 50.287655 18.927019 -17.959789 -2.992876 17.918407 -17.027866 42.356323 54.017250 0.374449 19.938787 35.220543 12.108730 5.793292 14.199384 6.464326 2.693644 40.328339 1.596478 -0.224503 50.503113 0.285796 -0.254278 31.546757 -0.014433 -0.366274 40.667068 3.197855 0.631752 59.340382 1.035030 1.124339 37.541721 1.093517 0.895275 32.092472 1.572739 -14.655943 41.767017 -11.097223 -3.327141 26.454622 -7.034718 -0.693391 0.664490 0.798881 -3.303530 -0.000582 -0.001561 13.191042 -1.156867 2.151370 -10.471498 0.000258 -0.000511 0.802918 1.799731 -2.453589 -1.156430 0.001926 0.001670 11.277699 0.371466 -0.067452 -9.575088 -0.000696 0.001271 -0.510153 
30.800446 79.626576 -0.387432 -0.422933 5.772305 -0.838970 0.001691 -0.140048 -12.497476 1.300412 -0.635831 14.729097 6.144205 -0.408444 24.047291 -4.300817 1.286772 -14.912435 4.730680 -8.657835 3.947709 -78.160057 -2.947975 19.108513 -0.000237 -19.910082 -34.818703 -1.121762 10.612775 -5.480158 -26.931742 -41.575935 54.230209 -20.129713 18.852907 -3.408361 -21.426023 20.080984 41.196270 -25.976809 -7.433501 17.832342 -35.704456 -12.517550 6.673785 -26.299152 -10.247048 4.973681 -9.117668 -9.907364 -3.090014 -40.959759 -1.436586 1.762554 -29.617607 -1.648037 1.744268 -15.252292 -8.613533 -3.066612 -33.053680 -0.192593 -0.648879 -23.337168 0.159476 -0.755394 -5.398191 -5.617050 -22.664213 -25.804380 9.168640 -5.840443 -15.977852 7.071084 -4.725067 7.852705 1.520757 5.048950 56.842888 16.612600 1.696739 179.987289 73.137825 154.410538 -10.093531 -17.575832 2.538471 24.424347 43.833290 50.267532 18.959148 -17.985518 -3.005018 17.936657 -17.048550 42.349876 54.136765 0.384467 19.942287 35.286678 12.130486 5.806353 14.244408 6.479986 2.699501 40.426212 1.605044 -0.219262 50.247730 0.284488 -0.255451 31.425524 -0.014442 -0.366279 40.795105 3.213391 0.614994 58.830273 1.011734 1.083883 37.247234 1.059803 0.860160 32.264645 1.480368 -14.627685 40.962940 -10.929851 -3.161772 25.943789 -6.913192 -0.630829 0.750887 0.406513 -2.931744 -0.000726 -0.001297 13.228300 -1.130204 1.561683 -10.596786 0.000204 -0.000493 0.760500 1.887022 -2.770982 -0.619697 0.001685 0.001812 11.470772 0.376696 -0.832019 -10.003560 -0.000686 0.000931 -0.483627 
30.790557 79.616284 -0.133497 -0.450807 6.541670 -1.124614 0.001591 -0.084094 -12.740338 0.946437 -0.523220 14.736176 6.677989 -0.528286 23.935644 -3.589349 1.563161 -14.203516 4.708462 -8.454446 3.935817 -77.494652 -2.061223 17.515650 -0.000225 -22.516672 -34.881618 -3.466803 10.632364 -5.721633 -26.956469 -41.565598 54.234592 -20.120316 18.808567 -3.404985 -21.407946 20.069057 41.201817 -25.728474 -7.385651 17.811083 -35.671177 -12.508993 6.672153 -26.783436 -10.196587 5.065088 -9.034570 -9.923171 -3.105664 -40.825706 -1.433724 1.751869 -29.475882 -1.632569 1.731133 -15.052872 -8.561975 -3.097790 -32.955353 -0.181383 -0.670480 -23.966223 0.170387 -0.778480 -5.435604 -5.614832 -22.673569 -25.781326 9.113801 -5.839959 -15.960734 7.064010 -4.723353 7.859876 1.242890 5.044091 56.778973 16.164124 1.044819 179.987640 73.246223 155.250900 -8.853681 -17.734739 2.500495 24.415745 43.874584 50.243923 18.981306 -18.002680 -3.013856 17.950365 -17.065020 42.344688 54.252449 0.393497 19.943787 35.341217 12.147493 5.813154 14.285497 6.491784 2.702500 40.499893 1.612590 -0.212735 50.036407 0.284410 -0.254677 31.328289 -0.013197 -0.364618 40.911518 3.232003 0.590789 58.322647 0.984713 1.037144 36.950207 1.021042 0.819141 32.377563 1.404714 -14.607904 40.309372 -10.793536 -3.033611 25.526819 -6.816568 -0.583976 0.896471 -0.005676 -2.567992 -0.000857 -0.001054 13.266954 -1.129505 0.903973 -10.722797 0.000164 -0.000513 0.712158 2.015836 -3.115894 -0.066803 0.001422 0.001896 11.642140 0.383889 -1.654789 -10.417848 -0.000625 0.000603 -0.446161 
30.769108 79.607122 0.114695 -0.507522 7.294204 -1.436599 0.001430 -0.015527 -12.942616 0.572683 -0.385736 14.757941 7.318721 -0.740605 23.894493 -2.600900 1.903827 -13.586455 4.706971 -8.227000 3.911635 -76.877274 -1.149967 15.532712 -0.000164 -26.187265 -34.702747 -5.482951 10.582752 -5.911097 -26.993223 -41.558247 54.251251 -20.109711 18.810020 -3.401107 -21.391380 20.058104 41.206638 -25.518425 -7.356096 17.796165 -35.629639 -12.497183 6.667442 -27.185862 -10.149837 5.141459 -8.925550 -9.942963 -3.110561 -40.666355 -1.422695 1.741122 -29.309179 -1.616260 1.717650 -14.851955 -8.524896 -3.126875 -32.828899 -0.168379 -0.694439 -24.469707 0.183582 -0.802964 -5.472803 -5.613741 -22.669214 -25.740507 9.112820 -5.835242 -15.932457 7.051930 -4.719500 7.879829 0.936556 5.030894 56.771706 15.756033 0.128255 179.988190 73.097420 156.064575 -7.748209 -17.880203 2.455227 24.401480 43.904457 50.218391 18.992271 -18.010300 -3.018947 17.953676 -17.072187 42.342648 54.361378 0.401955 19.945248 35.383739 12.160210 5.815231 14.320795 6.500987 2.703721 40.549942 1.618878 -0.202877 49.861496 0.286686 -0.249580 31.249668 -0.008876 -0.358984 41.019905 3.252283 0.560502 57.812588 0.954595 0.985082 36.646477 0.978109 0.773024 32.440399 1.344814 -14.595367 39.809593 -10.688728 -2.941880 25.207045 -6.744038 -0.551878 1.103045 -0.421490 -2.224730 -0.000959 -0.000866 13.311025 -1.157896 0.198367 -10.849495 0.000152 -0.000594 0.662131 2.190536 -3.473475 0.487292 0.001141 0.001909 11.787325 0.389214 -2.513601 -10.801998 -0.000514 0.000316 -0.400980 
30.734215 79.598564 0.355207 -0.596630 8.014084 -1.771155 0.001229 0.062908 -13.088654 0.243748 -0.228179 14.788728 8.030577 -1.044503 23.871300 -1.352626 2.302409 -13.070178 4.739518 -7.983283 3.867564 -76.365364 -0.277267 13.189735 -0.000040 -30.952940 -34.324886 -6.600897 10.455231 -5.972064 -27.036781 -41.549839 54.273670 -20.099014 18.868504 -3.397060 -21.377039 20.048096 41.210625 -25.361040 -7.344095 17.788071 -35.584122 -12.483493 6.660248 -27.313999 -10.126050 5.168579 -8.808583 -9.964531 -3.108260 -40.501373 -1.402773 1.731463 -29.142275 -1.601309 1.705541 -14.670170 -8.503351 -3.151199 -32.689468 -0.155128 -0.718214 -24.582804 0.197549 -0.825828 -5.506839 -5.613941 -22.658535 -25.686253 9.181024 -5.826250 -15.896431 7.036590 -4.714177 7.906383 0.606309 5.004880 56.850780 15.389992 -1.093180 179.988922 72.617233 156.817993 -6.882823 -17.987789 2.420473 24.383986 43.920750 50.194584 18.992222 -18.008766 -3.020108 17.941952 -17.065590 42.345356 54.465508 0.411734 19.946461 35.412987 12.168826 5.813732 14.348900 6.507596 2.703874 40.586040 1.625285 -0.190746 49.714924 0.290965 -0.240542 31.185366 -0.001826 -0.349668 41.121487 3.275220 0.523254 57.300468 0.921361 0.927486 36.338345 0.930920 0.721493 32.467903 1.295035 -14.586805 39.432102 -10.608747 -2.879033 24.965540 -6.690113 -0.531214 1.363655 -0.823475 -1.917712 -0.001028 -0.000741 13.363444 -1.214193 -0.534214 -10.970606 0.000168 -0.000737 0.614368 2.408102 -3.830216 1.026276 0.000845 0.001853 11.909889 0.390568 -3.388919 -11.143753 -0.000355 0.000095 -0.351124 
